# xmcd
# 
# Track frame offsets:
#     150
#     12470
#     25174
#     35300
#     45393
#     57636
#     71266
#     80020
#     91483
#     101352
#     112647
#     126905
#     140397
#     150351
#     161242
#     171127
#     183985
#     195097
#     206831
#     220263
#     230227
#     243321
# 
# Disc length: 3398
# 
# Revision: 1
# Processed by: cddbd v1.5.2PL0 Copyright (c) Steve Scherf et al.
# Submitted via: fre:ac v1.1beta1pre5
# 
DISCID=240d4416
DTITLE=George Jones and Tammy Wynette - Me And The First Lady/We're Gonna Hold On
DYEAR=0
DGENRE=Country
TTITLE0=We Believe In Each Other
TTITLE1=A Lovely Place To Cry
TTITLE2=There's Power In Our Love
TTITLE3=A Perfect Match
TTITLE4=The Great Divide
TTITLE5=To Live On Love
TTITLE6=You And Me Together
TTITLE7=Lovin' You Is Worth It
TTITLE8=We're Gonna Try To Get Along
TTITLE9=It's Been A Beautiful Life (Loving You)
TTITLE10=The Ceremony
TTITLE11=We're Gonna Hold On
TTITLE12=When True Love Steps In
TTITLE13=Never Ending Song Of Love
TTITLE14=Wouldn't I?
TTITLE15=Roll In My Sweet Baby's Arms
TTITLE16=(We're Not) The Jet Set
TTITLE17=Crawdad Song
TTITLE18=If Loving You Starts Hurting Me
TTITLE19=That Man Of Mine
TTITLE20=The Woman Loves Me Right
TTITLE21=As Long As We Can
EXTD=
EXTT0=
EXTT1=
EXTT2=
EXTT3=
EXTT4=
EXTT5=
EXTT6=
EXTT7=
EXTT8=
EXTT9=
EXTT10=
EXTT11=
EXTT12=
EXTT13=
EXTT14=
EXTT15=
EXTT16=
EXTT17=
EXTT18=
EXTT19=
EXTT20=
EXTT21=
PLAYORDER=
